<svg width="100" height="100" viewBox="0 0 100 100" fill="none" xmlns="http://www.w3.org/2000/svg">
<rect width="100" height="100" rx="6" fill="#151617"/>
<path d="M80.2833 84.0519V78.7273H82.855V88H80.3859V86.3157H80.2893C80.08 86.859 79.7319 87.2957 79.2449 87.6257C78.762 87.9558 78.1724 88.1208 77.4761 88.1208C76.8563 88.1208 76.311 87.9799 75.8401 87.6982C75.3692 87.4165 75.001 87.016 74.7354 86.4968C74.4738 85.9777 74.3409 85.3558 74.3369 84.6314V78.7273H76.9087V84.1726C76.9127 84.72 77.0596 85.1526 77.3493 85.4705C77.6391 85.7885 78.0275 85.9475 78.5145 85.9475C78.8244 85.9475 79.1141 85.877 79.3838 85.7362C79.6534 85.5913 79.8708 85.378 80.0358 85.0963C80.2048 84.8145 80.2873 84.4664 80.2833 84.0519Z" fill="white"/>
<path d="M67.1199 88.1751C66.5282 88.1751 66.001 88.0725 65.5382 87.8672C65.0753 87.6579 64.7091 87.3501 64.4395 86.9436C64.1738 86.5331 64.041 86.0219 64.041 85.4102C64.041 84.895 64.1356 84.4624 64.3248 84.1122C64.5139 83.7621 64.7715 83.4804 65.0975 83.2671C65.4235 83.0538 65.7937 82.8928 66.2083 82.7841C66.6268 82.6755 67.0655 82.599 67.5243 82.5547C68.0636 82.4984 68.4983 82.4461 68.8283 82.3978C69.1583 82.3454 69.3978 82.269 69.5467 82.1684C69.6956 82.0677 69.7701 81.9188 69.7701 81.7216V81.6854C69.7701 81.3031 69.6493 81.0073 69.4078 80.798C69.1704 80.5887 68.8323 80.4841 68.3936 80.4841C67.9308 80.4841 67.5626 80.5867 67.2889 80.7919C67.0152 80.9932 66.8341 81.2467 66.7456 81.5526L64.367 81.3594C64.4878 80.796 64.7252 80.309 65.0794 79.8985C65.4335 79.4839 65.8903 79.166 66.4498 78.9446C67.0132 78.7193 67.6652 78.6066 68.4057 78.6066C68.9209 78.6066 69.4139 78.6669 69.8848 78.7877C70.3597 78.9084 70.7802 79.0956 71.1465 79.3491C71.5168 79.6027 71.8085 79.9287 72.0218 80.3271C72.2351 80.7215 72.3418 81.1944 72.3418 81.7458V88H69.9029V86.7142H69.8304C69.6815 87.0039 69.4823 87.2595 69.2328 87.4809C68.9833 87.6982 68.6834 87.8692 68.3333 87.994C67.9831 88.1147 67.5787 88.1751 67.1199 88.1751ZM67.8564 86.4002C68.2347 86.4002 68.5687 86.3258 68.8585 86.1769C69.1483 86.0239 69.3757 85.8187 69.5407 85.5611C69.7057 85.3035 69.7882 85.0118 69.7882 84.6858V83.7017C69.7077 83.7541 69.597 83.8024 69.4561 83.8466C69.3193 83.8869 69.1644 83.9251 68.9913 83.9613C68.8182 83.9935 68.6452 84.0237 68.4721 84.0519C68.2991 84.076 68.1421 84.0982 68.0012 84.1183C67.6994 84.1626 67.4358 84.233 67.2104 84.3296C66.985 84.4262 66.81 84.557 66.6852 84.722C66.5604 84.883 66.498 85.0842 66.498 85.3257C66.498 85.6758 66.6248 85.9435 66.8784 86.1286C67.136 86.3097 67.4619 86.4002 67.8564 86.4002Z" fill="white"/>
<path d="M58.5415 88.1811C57.5877 88.1811 56.7667 87.988 56.0785 87.6016C55.3943 87.2112 54.8671 86.6598 54.4968 85.9475C54.1265 85.2311 53.9414 84.3839 53.9414 83.4059C53.9414 82.4521 54.1265 81.615 54.4968 80.8946C54.8671 80.1742 55.3883 79.6127 56.0604 79.2103C56.7365 78.8078 57.5294 78.6066 58.4389 78.6066C59.0507 78.6066 59.6201 78.7052 60.1474 78.9024C60.6786 79.0956 61.1415 79.3873 61.5359 79.7777C61.9343 80.1681 62.2442 80.6591 62.4656 81.2507C62.6869 81.8383 62.7976 82.5265 62.7976 83.3154V84.0217H54.9677V82.4279H60.3768C60.3768 82.0577 60.2963 81.7297 60.1353 81.4439C59.9743 81.1582 59.7509 80.9348 59.4652 80.7738C59.1835 80.6088 58.8555 80.5263 58.4812 80.5263C58.0908 80.5263 57.7447 80.6169 57.4428 80.798C57.145 80.9751 56.9116 81.2145 56.7425 81.5164C56.5735 81.8142 56.487 82.1462 56.483 82.5125V84.0277C56.483 84.4865 56.5675 84.883 56.7365 85.217C56.9096 85.5511 57.1531 85.8086 57.467 85.9897C57.7809 86.1708 58.1532 86.2614 58.5838 86.2614C58.8696 86.2614 59.1312 86.2211 59.3686 86.1407C59.6061 86.0602 59.8093 85.9394 59.9783 85.7784C60.1474 85.6175 60.2762 85.4203 60.3647 85.1868L62.7433 85.3438C62.6225 85.9153 62.375 86.4143 62.0007 86.8409C61.6304 87.2635 61.1515 87.5935 60.5639 87.831C59.9803 88.0644 59.3062 88.1811 58.5415 88.1811Z" fill="white"/>
<path d="M47.791 88V78.7273H50.2843V80.3452H50.3809C50.5499 79.7697 50.8336 79.335 51.2321 79.0412C51.6305 78.7434 52.0893 78.5945 52.6085 78.5945C52.7373 78.5945 52.8761 78.6025 53.025 78.6186C53.1739 78.6347 53.3047 78.6569 53.4174 78.685V80.967C53.2967 80.9308 53.1297 80.8986 52.9164 80.8704C52.7031 80.8422 52.5079 80.8281 52.3308 80.8281C51.9525 80.8281 51.6144 80.9107 51.3166 81.0757C51.0228 81.2366 50.7894 81.462 50.6163 81.7518C50.4473 82.0416 50.3627 82.3756 50.3627 82.7539V88H47.791Z" fill="white"/>
<path d="M40.835 88V78.7273H43.3282V80.3452H43.4248C43.5938 79.7697 43.8776 79.335 44.276 79.0412C44.6744 78.7434 45.1333 78.5945 45.6524 78.5945C45.7812 78.5945 45.9201 78.6025 46.069 78.6186C46.2179 78.6347 46.3487 78.6569 46.4614 78.685V80.967C46.3406 80.9308 46.1736 80.8986 45.9603 80.8704C45.747 80.8422 45.5518 80.8281 45.3747 80.8281C44.9964 80.8281 44.6583 80.9107 44.3605 81.0757C44.0667 81.2366 43.8333 81.462 43.6602 81.7518C43.4912 82.0416 43.4067 82.3756 43.4067 82.7539V88H40.835Z" fill="white"/>
<path d="M36.2061 84.0519V78.7273H38.7779V88H36.3088V86.3157H36.2122C36.0029 86.859 35.6548 87.2957 35.1678 87.6257C34.6848 87.9558 34.0952 88.1208 33.399 88.1208C32.7792 88.1208 32.2338 87.9799 31.763 87.6982C31.2921 87.4165 30.9238 87.016 30.6582 86.4968C30.3966 85.9777 30.2638 85.3558 30.2598 84.6314V78.7273H32.8315V84.1726C32.8355 84.72 32.9824 85.1526 33.2722 85.4705C33.562 85.7885 33.9503 85.9475 34.4373 85.9475C34.7472 85.9475 35.037 85.877 35.3066 85.7362C35.5763 85.5913 35.7936 85.378 35.9586 85.0963C36.1277 84.8145 36.2102 84.4664 36.2061 84.0519Z" fill="white"/>
<path d="M24.0239 88.1811C23.0861 88.1811 22.2752 87.9819 21.591 87.5835C20.9108 87.181 20.3856 86.6216 20.0154 85.9052C19.6451 85.1848 19.46 84.3497 19.46 83.3999C19.46 82.442 19.6451 81.6049 20.0154 80.8885C20.3856 80.1681 20.9108 79.6087 21.591 79.2103C22.2752 78.8078 23.0861 78.6066 24.0239 78.6066C24.9616 78.6066 25.7706 78.8078 26.4507 79.2103C27.1349 79.6087 27.6621 80.1681 28.0324 80.8885C28.4027 81.6049 28.5878 82.442 28.5878 83.3999C28.5878 84.3497 28.4027 85.1848 28.0324 85.9052C27.6621 86.6216 27.1349 87.181 26.4507 87.5835C25.7706 87.9819 24.9616 88.1811 24.0239 88.1811ZM24.036 86.189C24.4626 86.189 24.8187 86.0682 25.1045 85.8267C25.3902 85.5812 25.6056 85.2472 25.7504 84.8246C25.8994 84.402 25.9738 83.9211 25.9738 83.3818C25.9738 82.8425 25.8994 82.3615 25.7504 81.939C25.6056 81.5164 25.3902 81.1823 25.1045 80.9368C24.8187 80.6913 24.4626 80.5686 24.036 80.5686C23.6053 80.5686 23.2431 80.6913 22.9493 80.9368C22.6595 81.1823 22.4402 81.5164 22.2913 81.939C22.1464 82.3615 22.074 82.8425 22.074 83.3818C22.074 83.9211 22.1464 84.402 22.2913 84.8246C22.4402 85.2472 22.6595 85.5812 22.9493 85.8267C23.2431 86.0682 23.6053 86.189 24.036 86.189Z" fill="white"/>
<path d="M9.0752 88V75.6364H11.6469V80.2848H11.7254C11.8381 80.0353 12.0011 79.7817 12.2144 79.5241C12.4317 79.2625 12.7135 79.0452 13.0596 78.8721C13.4097 78.6951 13.8444 78.6065 14.3635 78.6065C15.0397 78.6065 15.6635 78.7836 16.235 79.1378C16.8065 79.4879 17.2633 80.0172 17.6054 80.7255C17.9475 81.4298 18.1185 82.3132 18.1185 83.3757C18.1185 84.41 17.9515 85.2834 17.6175 85.9957C17.2874 86.7041 16.8367 87.2413 16.2652 87.6076C15.6977 87.9698 15.0618 88.1509 14.3575 88.1509C13.8585 88.1509 13.4339 88.0684 13.0837 87.9034C12.7376 87.7384 12.4539 87.5311 12.2325 87.2816C12.0112 87.028 11.8421 86.7725 11.7254 86.5149H11.6107V88H9.0752ZM11.5926 83.3636C11.5926 83.915 11.6691 84.3959 11.822 84.8064C11.9749 85.217 12.1963 85.5369 12.4861 85.7663C12.7758 85.9917 13.128 86.1044 13.5425 86.1044C13.9611 86.1044 14.3153 85.9897 14.605 85.7603C14.8948 85.5269 15.1141 85.2049 15.2631 84.7944C15.416 84.3798 15.4925 83.9029 15.4925 83.3636C15.4925 82.8283 15.418 82.3575 15.2691 81.951C15.1202 81.5445 14.9008 81.2266 14.6111 80.9971C14.3213 80.7677 13.9651 80.653 13.5425 80.653C13.124 80.653 12.7698 80.7637 12.48 80.9851C12.1943 81.2064 11.9749 81.5203 11.822 81.9268C11.6691 82.3333 11.5926 82.8123 11.5926 83.3636Z" fill="white"/>
<path d="M67.7778 61.6392V67H65.2061V57.7273H67.657V59.3633H67.7657C67.971 58.824 68.3151 58.3974 68.798 58.0835C69.281 57.7655 69.8666 57.6066 70.5548 57.6066C71.1987 57.6066 71.7601 57.7474 72.2391 58.0292C72.718 58.3109 73.0903 58.7133 73.3559 59.2365C73.6215 59.7557 73.7544 60.3755 73.7544 61.0959V67H71.1826V61.5547C71.1866 60.9872 71.0418 60.5445 70.748 60.2266C70.4542 59.9046 70.0497 59.7436 69.5345 59.7436C69.1884 59.7436 68.8825 59.8181 68.6169 59.967C68.3553 60.1159 68.1501 60.3332 68.0012 60.619C67.8563 60.9007 67.7818 61.2408 67.7778 61.6392Z" fill="white"/>
<path d="M60.5741 67V57.7273H63.1459V67H60.5741ZM61.866 56.532C61.4837 56.532 61.1557 56.4052 60.882 56.1516C60.6124 55.8941 60.4775 55.5862 60.4775 55.228C60.4775 54.8738 60.6124 54.57 60.882 54.3164C61.1557 54.0588 61.4837 53.9301 61.866 53.9301C62.2484 53.9301 62.5744 54.0588 62.844 54.3164C63.1177 54.57 63.2545 54.8738 63.2545 55.228C63.2545 55.5862 63.1177 55.8941 62.844 56.1516C62.5744 56.4052 62.2484 56.532 61.866 56.532Z" fill="white"/>
<path d="M58.8996 57.7273V59.6591H53.3154V57.7273H58.8996ZM54.5832 55.5057H57.1549V64.1506C57.1549 64.3881 57.1911 64.5732 57.2636 64.706C57.336 64.8348 57.4366 64.9254 57.5654 64.9777C57.6982 65.03 57.8512 65.0562 58.0242 65.0562C58.145 65.0562 58.2657 65.0461 58.3865 65.026C58.5072 65.0018 58.5998 64.9837 58.6642 64.9716L59.0686 66.8854C58.9398 66.9256 58.7587 66.9719 58.5253 67.0242C58.2919 67.0805 58.0081 67.1148 57.6741 67.1268C57.0543 67.151 56.511 67.0685 56.0441 66.8793C55.5813 66.6902 55.2211 66.3964 54.9635 65.9979C54.7059 65.5995 54.5792 65.0964 54.5832 64.4887V55.5057Z" fill="white"/>
<path d="M45.9633 61.6392V67H43.3916V57.7273H45.8426V59.3633H45.9513C46.1565 58.824 46.5006 58.3974 46.9836 58.0835C47.4665 57.7655 48.0521 57.6066 48.7403 57.6066C49.3843 57.6066 49.9457 57.7474 50.4246 58.0292C50.9036 58.3109 51.2758 58.7133 51.5415 59.2365C51.8071 59.7557 51.9399 60.3755 51.9399 61.0959V67H49.3682V61.5547C49.3722 60.9872 49.2273 60.5445 48.9335 60.2266C48.6397 59.9046 48.2352 59.7436 47.7201 59.7436C47.374 59.7436 47.0681 59.8181 46.8025 59.967C46.5409 60.1159 46.3356 60.3332 46.1867 60.619C46.0418 60.9007 45.9674 61.2408 45.9633 61.6392Z" fill="white"/>
<path d="M37.4576 67.1811C36.5037 67.1811 35.6827 66.988 34.9945 66.6016C34.3103 66.2112 33.7831 65.6598 33.4128 64.9475C33.0426 64.2311 32.8574 63.3839 32.8574 62.4059C32.8574 61.4521 33.0426 60.615 33.4128 59.8946C33.7831 59.1742 34.3043 58.6127 34.9764 58.2103C35.6525 57.8078 36.4454 57.6066 37.3549 57.6066C37.9667 57.6066 38.5362 57.7052 39.0634 57.9024C39.5946 58.0956 40.0575 58.3873 40.4519 58.7777C40.8503 59.1681 41.1602 59.6591 41.3816 60.2507C41.6029 60.8383 41.7136 61.5265 41.7136 62.3154V63.0217H33.8837V61.4279H39.2928C39.2928 61.0577 39.2123 60.7297 39.0513 60.4439C38.8903 60.1582 38.667 59.9348 38.3812 59.7738C38.0995 59.6088 37.7715 59.5263 37.3972 59.5263C37.0068 59.5263 36.6607 59.6169 36.3588 59.798C36.061 59.9751 35.8276 60.2145 35.6586 60.5164C35.4895 60.8142 35.403 61.1462 35.399 61.5125V63.0277C35.399 63.4865 35.4835 63.883 35.6525 64.217C35.8256 64.5511 36.0691 64.8086 36.383 64.9897C36.6969 65.1708 37.0692 65.2614 37.4998 65.2614C37.7856 65.2614 38.0472 65.2212 38.2846 65.1407C38.5221 65.0602 38.7253 64.9394 38.8944 64.7784C39.0634 64.6175 39.1922 64.4203 39.2807 64.1868L41.6593 64.3438C41.5385 64.9153 41.291 65.4143 40.9167 65.8409C40.5465 66.2635 40.0675 66.5935 39.4799 66.831C38.8964 67.0644 38.2222 67.1811 37.4576 67.1811Z" fill="white"/>
<path d="M31.1713 54.6364V67H28.5996V54.6364H31.1713Z" fill="white"/>
<path d="M21.3825 67.1751C20.7909 67.1751 20.2637 67.0725 19.8009 66.8672C19.338 66.6579 18.9718 66.3501 18.7021 65.9436C18.4365 65.5331 18.3037 65.0219 18.3037 64.4102C18.3037 63.895 18.3983 63.4624 18.5874 63.1122C18.7766 62.7621 19.0342 62.4804 19.3602 62.2671C19.6862 62.0538 20.0564 61.8928 20.471 61.7841C20.8895 61.6755 21.3282 61.599 21.787 61.5547C22.3263 61.4984 22.761 61.4461 23.091 61.3978C23.421 61.3454 23.6605 61.269 23.8094 61.1684C23.9583 61.0677 24.0328 60.9188 24.0328 60.7216V60.6854C24.0328 60.3031 23.912 60.0073 23.6705 59.798C23.4331 59.5887 23.095 59.4841 22.6563 59.4841C22.1935 59.4841 21.8253 59.5867 21.5516 59.7919C21.2779 59.9932 21.0968 60.2467 21.0083 60.5526L18.6297 60.3594C18.7504 59.796 18.9879 59.309 19.3421 58.8985C19.6962 58.4839 20.153 58.166 20.7124 57.9446C21.2759 57.7193 21.9279 57.6066 22.6684 57.6066C23.1836 57.6066 23.6766 57.6669 24.1475 57.7877C24.6224 57.9084 25.0429 58.0956 25.4092 58.3491C25.7794 58.6027 26.0712 58.9287 26.2845 59.3271C26.4978 59.7215 26.6045 60.1944 26.6045 60.7458V67H24.1656V65.7142H24.0931C23.9442 66.0039 23.745 66.2595 23.4955 66.4809C23.2459 66.6982 22.9461 66.8692 22.596 66.994C22.2458 67.1147 21.8414 67.1751 21.3825 67.1751ZM22.1191 65.4002C22.4974 65.4002 22.8314 65.3258 23.1212 65.1769C23.411 65.0239 23.6383 64.8187 23.8034 64.5611C23.9684 64.3035 24.0509 64.0118 24.0509 63.6858V62.7017C23.9704 62.7541 23.8597 62.8024 23.7188 62.8466C23.582 62.8869 23.4271 62.9251 23.254 62.9613C23.0809 62.9935 22.9079 63.0237 22.7348 63.0519C22.5618 63.076 22.4048 63.0982 22.2639 63.1183C21.9621 63.1626 21.6985 63.233 21.4731 63.3296C21.2477 63.4262 21.0727 63.557 20.9479 63.722C20.8231 63.883 20.7607 64.0842 20.7607 64.3257C20.7607 64.6758 20.8875 64.9435 21.1411 65.1286C21.3986 65.3097 21.7246 65.4002 22.1191 65.4002Z" fill="white"/>
<path d="M17.6714 57.7273L14.4296 67H11.5319L8.29004 57.7273H11.0067L12.9324 64.3619H13.029L14.9488 57.7273H17.6714Z" fill="white"/>
</svg>
