<svg width="40" height="40" viewBox="0 0 40 40" fill="none" xmlns="http://www.w3.org/2000/svg">
<mask id="mask0_570_2388" style="mask-type:alpha" maskUnits="userSpaceOnUse" x="0" y="0" width="40" height="40">
<circle cx="20" cy="20" r="20" fill="currentColor"/>
</mask>
<g mask="url(#mask0_570_2388)">
<path fillRule="evenodd" clipRule="evenodd" d="M14 12C13.7348 12 13.4804 12.1054 13.2929 12.2929C13.1054 12.4804 13 12.7348 13 13V24.1716C13.3182 24.0591 13.6561 24 14 24H27V12H14ZM11 13V27C11 27.7957 11.3161 28.5587 11.8787 29.1213C12.4413 29.6839 13.2043 30 14 30H28C28.5523 30 29 29.5523 29 29C29 28.4477 28.5523 28 28 28H14C13.7348 28 13.4804 27.8946 13.2929 27.7071C13.1054 27.5196 13 27.2652 13 27C13 26.7348 13.1054 26.4804 13.2929 26.2929C13.4804 26.1054 13.7348 26 14 26H28C28.5523 26 29 25.5523 29 25C29 24.9514 28.9965 24.9037 28.9899 24.857C28.9965 24.8103 29 24.7626 29 24.714V11.6C29 11.1757 28.8314 10.7687 28.5314 10.4686C28.2313 10.1686 27.8243 10 27.4 10H14C13.2044 10 12.4413 10.3161 11.8787 10.8787C11.3161 11.4413 11 12.2044 11 13ZM17 14C16.4477 14 16 14.4477 16 15C16 15.5523 16.4477 16 17 16H23C23.5523 16 24 15.5523 24 15C24 14.4477 23.5523 14 23 14H17Z" fill="currentColor"/>
</g>
</svg>
