<svg width="162" height="14" viewBox="0 0 162 14" xmlns="http://www.w3.org/2000/svg">
<path d="M3.98113 13.8491H6.58491L10.566 3.66038H7.58491L5.30189 10.434L3.03774 3.66038H0L3.98113 13.8491Z" />
<path d="M14.6079 13.9623C16.0041 13.9623 16.9664 13.4528 17.6645 12.6792V13.7736H20.4381V7.90566C20.4381 6.54717 20.0985 5.43396 19.3437 4.67924C18.6268 3.96226 17.4947 3.54717 15.9287 3.54717C14.2117 3.54717 13.1173 3.86792 12.0041 4.35849L12.7211 6.54717C13.6456 6.20755 14.4192 6 15.5136 6C16.9475 6 17.6834 6.66038 17.6834 7.84906V8.01887C16.9664 7.77359 16.2305 7.60377 15.2117 7.60377C12.8154 7.60377 11.1362 8.62264 11.1362 10.8302C11.1362 12.8679 12.7022 13.9623 14.6079 13.9623ZM15.4758 11.9811C14.5513 11.9811 13.9098 11.5283 13.9098 10.7547C13.9098 9.81132 14.6645 9.32075 15.8909 9.32075C16.589 9.32075 17.2305 9.4717 17.7211 9.69811V10.2075C17.7211 11.2453 16.8154 11.9811 15.4758 11.9811Z" />
<path d="M23.038 13.7736H25.906V0H23.038V13.7736Z" />
<path d="M33.3919 14C35.2221 14 36.5806 13.283 37.524 12.1132L35.8825 10.6604C35.0901 11.3962 34.392 11.6981 33.4297 11.6981C32.1467 11.6981 31.241 11.0189 30.958 9.71698H37.9957C38.0146 9.45283 38.0335 9.18868 38.0335 8.96226C38.0335 6.09434 36.4863 3.4717 33.1089 3.4717C30.1655 3.4717 28.1089 5.84906 28.1089 8.73585C28.1089 11.8679 30.3542 14 33.3919 14ZM30.9203 7.92453C31.1467 6.62264 31.9203 5.77358 33.1089 5.77358C34.3165 5.77358 35.0712 6.64151 35.241 7.92453H30.9203Z" />
<path d="M40.1708 13.7736H43.0388V8.13208C43.0388 6.77358 43.7369 6.07547 44.8312 6.07547C45.9256 6.07547 46.5671 6.77358 46.5671 8.13208V13.7736H49.435V7.22642C49.435 4.90566 48.1708 3.4717 46.001 3.4717C44.5482 3.4717 43.6991 4.24528 43.0388 5.09434V3.66038H40.1708V13.7736Z" />
<path d="M55.3415 13.9434C56.3038 13.9434 57.0019 13.717 57.6057 13.3585V11.0566C57.1906 11.283 56.7189 11.4151 56.1906 11.4151C55.5491 11.4151 55.2661 11.0943 55.2661 10.434V6.11321H57.6434V3.66038H55.2661V1.07547H52.3981V3.66038H51.1906V6.11321H52.3981V10.9057C52.3981 13.2453 53.5868 13.9434 55.3415 13.9434Z" />
<path d="M59.814 2.54717H62.8328V0H59.814V2.54717ZM59.8894 13.7736H62.7574V3.66038H59.8894V13.7736Z" />
<path d="M65.4509 13.7736H68.3188V8.13208C68.3188 6.77358 69.0169 6.07547 70.1113 6.07547C71.2056 6.07547 71.8471 6.77358 71.8471 8.13208V13.7736H74.7151V7.22642C74.7151 4.90566 73.4509 3.4717 71.2811 3.4717C69.8283 3.4717 68.9792 4.24528 68.3188 5.09434V3.66038H65.4509V13.7736Z" />
<path d="M83.2254 13.9623C85.6216 13.9623 87.8291 12.1132 87.8291 8.73585C87.8291 5.32075 85.5839 3.4717 83.2254 3.4717C81.7348 3.4717 80.7725 4.16981 80.0744 5.11321V0H77.2065V13.7736H80.0744V12.4528C80.7537 13.2642 81.6971 13.9623 83.2254 13.9623ZM82.4895 11.5283C81.1499 11.5283 80.0367 10.4151 80.0367 8.73585C80.0367 7.01887 81.1499 5.90566 82.4895 5.90566C83.8291 5.90566 84.9612 7.01887 84.9612 8.69811C84.9612 10.434 83.8291 11.5283 82.4895 11.5283Z" />
<path d="M94.9009 14C98.0519 14 100.391 11.6415 100.391 8.73585C100.391 5.79245 98.0707 3.4717 94.9387 3.4717C91.7877 3.4717 89.4481 5.83019 89.4481 8.73585C89.4481 11.6792 91.7689 14 94.9009 14ZM94.9387 11.5283C93.3538 11.5283 92.2783 10.2264 92.2783 8.73585C92.2783 7.20755 93.2594 5.9434 94.9009 5.9434C96.4858 5.9434 97.5613 7.24528 97.5613 8.73585C97.5613 10.2642 96.5802 11.5283 94.9387 11.5283Z" />
<path d="M105.827 13.9623C107.279 13.9623 108.129 13.1887 108.789 12.3396V13.7736H111.657V3.66038H108.789V9.30189C108.789 10.6604 108.091 11.3585 106.996 11.3585C105.902 11.3585 105.261 10.6604 105.261 9.30189V3.66038H102.393V10.2075C102.393 12.5283 103.657 13.9623 105.827 13.9623Z" />
<path d="M114.224 13.7736H117.092V10.0377C117.092 7.62264 118.261 6.4717 120.167 6.4717H120.318V3.4717C118.62 3.39623 117.677 4.30189 117.092 5.69811V3.66038H114.224V13.7736Z" />
<path d="M122.11 13.7736H124.978V10.0377C124.978 7.62264 126.148 6.4717 128.053 6.4717H128.204V3.4717C126.506 3.39623 125.563 4.30189 124.978 5.69811V3.66038H122.11V13.7736Z" />
<path d="M134.512 14C136.342 14 137.701 13.283 138.644 12.1132L137.003 10.6604C136.21 11.3962 135.512 11.6981 134.55 11.6981C133.267 11.6981 132.361 11.0189 132.078 9.71698H139.116C139.135 9.45283 139.154 9.18868 139.154 8.96226C139.154 6.09434 137.607 3.4717 134.229 3.4717C131.286 3.4717 129.229 5.84906 129.229 8.73585C129.229 11.8679 131.474 14 134.512 14ZM132.041 7.92453C132.267 6.62264 133.041 5.77358 134.229 5.77358C135.437 5.77358 136.191 6.64151 136.361 7.92453H132.041Z" />
<path d="M144.159 13.9623C145.555 13.9623 146.518 13.4528 147.216 12.6792V13.7736H149.989V7.90566C149.989 6.54717 149.65 5.43396 148.895 4.67924C148.178 3.96226 147.046 3.54717 145.48 3.54717C143.763 3.54717 142.668 3.86792 141.555 4.35849L142.272 6.54717C143.197 6.20755 143.97 6 145.065 6C146.499 6 147.235 6.66038 147.235 7.84906V8.01887C146.518 7.77359 145.782 7.60377 144.763 7.60377C142.367 7.60377 140.687 8.62264 140.687 10.8302C140.687 12.8679 142.253 13.9623 144.159 13.9623ZM145.027 11.9811C144.102 11.9811 143.461 11.5283 143.461 10.7547C143.461 9.81132 144.216 9.32075 145.442 9.32075C146.14 9.32075 146.782 9.4717 147.272 9.69811V10.2075C147.272 11.2453 146.367 11.9811 145.027 11.9811Z" />
<path d="M155.816 13.9623C157.268 13.9623 158.117 13.1887 158.778 12.3396V13.7736H161.646V3.66038H158.778V9.30189C158.778 10.6604 158.08 11.3585 156.985 11.3585C155.891 11.3585 155.25 10.6604 155.25 9.30189V3.66038H152.382V10.2075C152.382 12.5283 153.646 13.9623 155.816 13.9623Z" />
</svg>
