<svg width="25" height="16" viewBox="0 0 25 16" fill="none" xmlns="http://www.w3.org/2000/svg">
<path d="M21.6771 1.19432H15.5981V2.88495H21.7011L21.6771 1.19432ZM20.3942 12.8249C19.933 13.1304 19.3884 13.2854 18.8354 13.2685C18.0955 13.3456 17.3569 13.111 16.7971 12.621C16.2851 12.0405 16.0186 11.2839 16.0537 10.5107H23.9912C24.0484 9.70565 23.9797 8.89657 23.7874 8.11269C23.6014 7.36693 23.2759 6.6631 22.8282 6.03838C22.3775 5.43239 21.7954 4.93638 21.1256 4.58756C20.3803 4.22011 19.5583 4.03517 18.7275 4.048C17.9461 4.04228 17.1715 4.19312 16.4494 4.49164C15.7881 4.7704 15.1889 5.178 14.6868 5.69066C14.1861 6.21357 13.7983 6.83395 13.5477 7.51318C13.2788 8.24644 13.1447 9.02232 13.152 9.80331C13.1397 10.5954 13.2697 11.3833 13.5357 12.1294C13.7617 12.8051 14.1205 13.4288 14.5909 13.9639C15.0776 14.4893 15.6757 14.899 16.3415 15.163C17.0838 15.4458 17.8733 15.5842 18.6676 15.5706C19.782 15.6054 20.8822 15.3136 21.833 14.7313C22.7933 14.0489 23.4847 13.0521 23.7874 11.9136H21.1375C20.9957 12.2903 20.7346 12.6102 20.3942 12.8249ZM16.2815 7.88488C16.4702 7.28036 16.9058 6.78385 17.4805 6.51799C17.857 6.34855 18.2669 6.26656 18.6795 6.27818C19.2828 6.22666 19.8785 6.44127 20.3102 6.86571C20.7176 7.36442 20.9791 7.96616 21.0656 8.60429H16.0897C16.1091 8.36063 16.1533 8.11958 16.2215 7.88488H16.2815ZM9.93866 7.30934C10.5489 7.05523 11.0792 6.64096 11.4734 6.11032C11.8358 5.54678 12.0158 4.88532 11.989 4.21586C12.0125 3.60536 11.8934 2.99779 11.6413 2.44131C11.4294 1.9592 11.0893 1.54447 10.6581 1.24228C10.2008 0.928106 9.6816 0.715507 9.13532 0.61879C8.48883 0.483196 7.82942 0.418864 7.16892 0.426946H0.0107422V15.5107L7.32479 15.5107C7.99227 15.5111 8.6571 15.4265 9.30318 15.2589C9.91558 15.1005 10.4958 14.8367 11.0178 14.4795C11.5235 14.129 11.9352 13.6596 12.2168 13.1126C12.5284 12.5009 12.681 11.8205 12.6604 11.1342C12.6832 10.2838 12.4446 9.44686 11.977 8.73618C11.4741 8.02147 10.7282 7.51428 9.87871 7.30934H9.93866ZM3.33204 3.00484L6.43751 3.00485C6.72281 3.0045 7.00762 3.02856 7.28882 3.07679C7.54775 3.11516 7.79641 3.20484 8.02022 3.34057C8.23646 3.46289 8.41168 3.64645 8.52381 3.86814C8.66268 4.13399 8.72887 4.4318 8.71566 4.73144C8.76098 5.25502 8.55118 5.76836 8.15212 6.11032C7.72301 6.40532 7.20954 6.55262 6.68931 6.52998H3.33204V3.00484ZM9.13532 11.9256C9.01213 12.17 8.82584 12.3769 8.59576 12.5251C8.35632 12.674 8.09249 12.7796 7.81639 12.8368C7.50951 12.9055 7.19559 12.9377 6.88115 12.9328H3.28408V8.79613H6.88115C7.49843 8.7691 8.10801 8.94147 8.61974 9.28773C9.08861 9.7085 9.32906 10.3274 9.26721 10.9544C9.29963 11.284 9.25446 11.6166 9.13532 11.9256Z" fill="black"/>
</svg>
