<svg width="20" height="20" viewBox="0 0 20 20" fill="none" xmlns="http://www.w3.org/2000/svg">
<path d="M10 0C4.47715 0 0 4.47715 0 10C0 15.5228 4.47715 20 10 20C15.5228 20 20 15.5228 20 10C20 7.34784 18.9464 4.8043 17.0711 2.92893C15.1957 1.05357 12.6522 0 10 0ZM10 2C12.0547 1.99918 14.0298 2.79493 15.51 4.22C13.982 5.1162 12.3629 5.847 10.68 6.4C9.84249 4.95683 8.88227 3.58844 7.81 2.31C8.52196 2.105 9.25911 2.00065 10 2ZM5.89 3.15C6.93768 4.34851 7.87797 5.6368 8.7 7C6.7371 7.4874 4.7225 7.73587 2.7 7.74H2.34C2.9072 5.81964 4.17394 4.18181 5.89 3.15ZM4 15.31C2.69875 13.8488 1.98608 11.9566 2 10C2 9.9 2 9.8 2 9.71H2.68C5.04738 9.68884 7.40139 9.35255 9.68 8.71C10 9.32 10.3 9.95 10.59 10.6C9.03149 11.1494 7.58001 11.9648 6.3 13.01L6 13.25C5.28712 13.8902 4.61889 14.5785 4 15.31ZM10 18C8.40609 18.0035 6.8482 17.5261 5.53 16.63C6.01684 16.0716 6.53784 15.5439 7.09 15.05L7.41 14.78C8.59316 13.7849 9.94897 13.0155 11.41 12.51C12.0113 14.136 12.4795 15.8082 12.81 17.51C11.9098 17.8387 10.9583 18.0046 10 18ZM14.63 16.51C14.3028 14.9966 13.8752 13.5066 13.35 12.05H13.69C13.7294 12.0403 13.7706 12.0403 13.81 12.05H13.92H14.02H14.5C15.5524 12.053 16.5968 12.2322 17.59 12.58C17.0443 14.1704 16.0079 15.5464 14.63 16.51ZM14.5 10C14.29 10 14.08 10 13.88 10C13.7505 9.98369 13.6195 9.98369 13.49 10C13.2182 10.0167 12.9477 10.0501 12.68 10.1H12.58C12.29 9.43 11.99 8.78 11.66 8.1C13.4506 7.48506 15.1704 6.68049 16.79 5.7C17.5934 6.98937 18.0131 8.48085 18 10C18 10.17 18 10.34 18 10.51C16.8667 10.1602 15.686 9.98818 14.5 10Z" fill="currentColor"/>
</svg>
