<svg width="100" height="51" viewBox="0 0 100 51" fill="none" xmlns="http://www.w3.org/2000/svg" style="--wc-icon-fill: rgb(91,63,255);">
<g clip-path="url(#clip0_2_29)">
<path d="M97.3939 0C98.8938 0 100.077 1.26105 99.994 2.75869C98.563 29.1282 76.7255 50.0699 49.9977 50.0699C23.2699 50.0699 1.43697 29.1282 0.00594004 2.75869C-0.0767517 1.26105 1.1085 0 2.60614 0H97.3939Z" fill="#5B3FFF"></path>
<path d="M29.2535 17.0299C29.9563 17.425 30.5053 18.0061 30.9004 18.7733C31.2955 19.5405 31.493 20.4639 31.493 21.5389V28.5355H28.4794V21.9477C28.4794 21.0014 28.2428 20.2732 27.7696 19.7633C27.2964 19.2534 26.651 18.9984 25.8332 18.9984C25.0155 18.9984 24.3448 19.2534 23.8647 19.7633C23.3824 20.2732 23.1435 21.0014 23.1435 21.9477V28.5355H20.1298L20.116 9.93677H23.1297L23.1435 18.0957C23.5317 17.5789 24.0485 17.1746 24.6939 16.8806C25.3394 16.5866 26.0584 16.4396 26.8462 16.4396C27.7489 16.4396 28.5529 16.6371 29.2581 17.0322" fill="white"></path>
<path d="M45.3532 23.4385H36.6361C36.7073 24.2999 37.0105 24.9752 37.5411 25.4621C38.0717 25.9491 38.7241 26.1926 39.5004 26.1926C40.6191 26.1926 41.4161 25.7125 41.8893 24.7501H45.1396C44.795 25.8986 44.1358 26.8403 43.1595 27.58C42.1833 28.3196 40.9866 28.6894 39.5648 28.6894C38.4163 28.6894 37.3872 28.4345 36.4753 27.9245C35.5634 27.4146 34.8536 26.6933 34.3437 25.7608C33.8338 24.8282 33.5788 23.7509 33.5788 22.5312C33.5788 21.3115 33.8292 20.2135 34.3322 19.2809C34.8352 18.3484 35.5381 17.6317 36.4408 17.1287C37.3459 16.6256 38.3864 16.3752 39.5625 16.3752C40.7385 16.3752 41.7101 16.6187 42.6083 17.1057C43.5041 17.5927 44.2001 18.2863 44.6962 19.1822C45.1901 20.0803 45.4382 21.1093 45.4382 22.2716C45.4382 22.7035 45.4083 23.0894 45.3532 23.4339M42.3188 21.4103C42.3051 20.6362 42.0248 20.0137 41.4782 19.5474C40.9338 19.0811 40.2653 18.8491 39.4775 18.8491C38.7309 18.8491 38.1039 19.0742 37.5939 19.5267C37.084 19.9792 36.7716 20.6063 36.6568 21.4103H42.3166H42.3188Z" fill="white"></path>
<path d="M58.6343 23.4385H49.9173C49.9885 24.2999 50.2917 24.9752 50.8223 25.4621C51.3529 25.9491 52.0052 26.1926 52.7816 26.1926C53.9002 26.1926 54.6973 25.7125 55.1705 24.7501H58.4207C58.0762 25.8986 57.4169 26.8403 56.4407 27.58C55.4645 28.3196 54.2678 28.6894 52.8459 28.6894C51.6974 28.6894 50.6684 28.4345 49.7565 27.9245C48.8446 27.4146 48.1348 26.6933 47.6249 25.7608C47.1149 24.8282 46.86 23.7509 46.86 22.5312C46.86 21.3115 47.1103 20.2135 47.6134 19.2809C48.1164 18.3484 48.8193 17.6317 49.722 17.1287C50.627 16.6256 51.6676 16.3752 52.8436 16.3752C54.0197 16.3752 54.9913 16.6187 55.8894 17.1057C56.7853 17.5927 57.4813 18.2863 57.9774 19.1822C58.4736 20.0803 58.7193 21.1093 58.7193 22.2716C58.7193 22.7035 58.6895 23.0894 58.6343 23.4339M55.6 21.4103C55.5862 20.6362 55.306 20.0137 54.7593 19.5474C54.2149 19.0811 53.5465 18.8491 52.7586 18.8491C52.0121 18.8491 51.385 19.0742 50.8751 19.5267C50.3652 19.9792 50.0528 20.6063 49.9379 21.4103H55.5977H55.6Z" fill="white"></path>
<path d="M65.445 16.938C66.0698 16.5797 66.7818 16.4005 67.5858 16.4005V19.5635H66.7887C65.8424 19.5635 65.128 19.7863 64.6479 20.2319C64.1656 20.6775 63.9267 21.4516 63.9267 22.5565V28.4965H60.913V16.5728H63.9267V18.4242C64.3149 17.7925 64.8202 17.2986 65.445 16.938Z" fill="white"></path>
<path d="M71.1117 27.9268C70.1929 27.4169 69.4716 26.6956 68.9479 25.7631C68.4242 24.8305 68.1623 23.7532 68.1623 22.5335C68.1623 21.3138 68.4311 20.2388 68.9686 19.3039C69.5061 18.3713 70.2411 17.6501 71.176 17.1401C72.1086 16.6302 73.1491 16.3752 74.2976 16.3752C75.4461 16.3752 76.4866 16.6302 77.4192 17.1401C78.3518 17.6501 79.0868 18.3713 79.6243 19.3039C80.1618 20.2365 80.4306 21.3138 80.4306 22.5335C80.4306 23.7532 80.1549 24.8305 79.6014 25.7631C79.0501 26.6956 78.3036 27.4169 77.3618 27.9268C76.4223 28.4368 75.3703 28.6917 74.208 28.6917C73.0457 28.6917 72.0259 28.4368 71.1094 27.9268M75.747 25.6666C76.2271 25.4001 76.6107 25.0028 76.8978 24.4721C77.1849 23.9415 77.3273 23.2961 77.3273 22.5358C77.3273 21.4011 77.0287 20.5305 76.4338 19.9218C75.8389 19.3131 75.1107 19.0076 74.2494 19.0076C73.388 19.0076 72.6667 19.3131 72.0856 19.9218C71.5045 20.5328 71.215 21.4034 71.215 22.5358C71.215 23.6682 71.4976 24.5411 72.0649 25.1521C72.6323 25.7631 73.3466 26.0663 74.2057 26.0663C74.7501 26.0663 75.2646 25.933 75.7447 25.6689" fill="white"></path>
</g>
<defs>
<clipPath id="clip0_2_29">
<rect width="99.9963" height="50.0699" fill="white" transform="translate(0.00186157)"></rect>
</clipPath>
</defs>
</svg>