<svg xmlns="http://www.w3.org/2000/svg" width="176" height="48" fill="none" viewBox="0 0 176 48" style="--wc-icon-fill: rgb(255, 255, 255);"><g clip-path="url(#a)"><path fill="#F5F5F5" d="M8.842 36.427h18.597L8.842 14.35V9.225l14.213 16.953 20.187-18.15v5.03L25.464 28.956l6.168 7.47 11.611-.048v3.545l-34.4.048v-3.544l-.001-.001Z"></path></g><g fill="#F5F5F5" clip-path="url(#b)"><path d="M59.722 16.852v7.73l9.404-7.73h2.183l-7.222 5.907 7.731 8.39h-2.141l-6.773-7.389-3.182 2.563.02 4.826h-1.51l-.02-14.297h1.51ZM84.058 16.852l6.63 14.297h-1.755l-1.958-4.345h-7.67l-1.959 4.345h-1.632l6.59-14.297h1.754Zm-4.142 8.59h6.447l-3.203-7.109-3.243 7.11ZM103.111 16.852c3.325 0 6.384 1.782 6.384 7.148 0 4.586-2.631 7.15-6.119 7.15h-7.385l-.02-14.298h7.14Zm-.041 12.936c2.325 0 4.794-1.242 4.794-5.788 0-3.985-1.673-5.787-4.896-5.787h-5.487v11.575h5.589ZM124.08 16.852c2.734 0 4.753 1.02 4.753 3.864 0 1.562-1.02 3.044-2.856 3.465v.04c1.857.26 2.346 1.462 2.51 2.923.122 1.122.122 2.323.306 3.245.061.28.163.64.305.76h-1.631c-.184-.24-.245-.5-.286-.78-.102-.741-.102-1.382-.122-2.223-.062-2.183-.816-3.284-3.427-3.284h-5.957l.02 6.287h-1.509l-.02-14.297h7.914Zm.021 6.648c1.978 0 3.1-.901 3.1-2.784 0-1.722-1.122-2.503-2.998-2.503h-6.528V23.5h6.426ZM142.011 16.852l6.63 14.297h-1.754l-1.959-4.345h-7.67l-1.958 4.345h-1.632l6.589-14.297h1.754Zm-4.141 8.59h6.446l-3.202-7.109-3.244 7.11ZM155.739 16.852l10.179 12.215h.041V16.852h1.51l.02 14.297h-1.754l-10.261-12.215h-.041l.021 12.215h-1.51l-.02-14.297h1.815Z"></path></g><defs><clipPath id="a"><path fill="#fff" d="M8.17 6.128h35.745v35.745H8.17z"></path></clipPath><clipPath id="b"><path fill="#fff" d="M58.213 16.851H167.49V31.15H58.213z"></path></clipPath></defs></svg>